<svg version="1.1" id="Layer_1" xmlns="http://www.w3.org/2000/svg" xmlns:xlink="http://www.w3.org/1999/xlink" x="0px" y="0px"
                 width="326px" height="87px" viewBox="0 0 578.78 153.5" enable-background="new 0 0 578.78 153.5" xml:space="preserve">
                <path fill="#005CA8" d="M127.63,19.27C114.08,7.27,96.27,0,76.75,0C34.37,0,0,34.36,0,76.75s34.37,76.75,76.75,76.75
                  c18.34,0,35.19-6.43,48.38-17.17l-20.08-14.4h23.42v-90.9h-21.48L127.63,19.27z M76.75,129.62c-29.2,0-52.87-23.67-52.87-52.87
                  s23.67-52.88,52.87-52.88c9.73,0,18.84,2.63,26.67,7.22v8.4c-7.51-5.39-16.72-8.56-26.67-8.56c-25.3,0-45.82,20.51-45.82,45.82
                  c0,25.3,20.52,45.82,45.82,45.82c9.95,0,19.16-3.17,26.67-8.57v7.93h0.8C96.21,126.8,86.82,129.62,76.75,129.62z M99.23,76.75
                  c0,12.41-10.06,22.48-22.48,22.48c-12.42,0-22.48-10.07-22.48-22.48c0-12.42,10.07-22.49,22.48-22.49
                  C89.17,54.26,99.23,64.33,99.23,76.75z M222.06,41.85c0-3.36-3.42-11-13.96-11c-10.51,0-73.06,0-73.06,0v0.18h-0.58v90.9h25.04
                  V55.14h5.99v66.78h25.04V55.14h6.53v66.81h25.04V44.05h-0.04V41.85z M317.85,75.41c0-26.38-21.39-47.76-47.77-47.76
                  c-26.38,0-47.76,21.37-47.76,47.76c0,26.38,21.38,47.76,47.76,47.76c18.49,0,34.52-10.5,42.46-25.86l-18.24-7.88
                  c0,0-12.11,13.34-26.49,12.93c-20.33-0.58-22.78-17.24-22.78-17.24h71.83C317.5,81.98,317.85,78.73,317.85,75.41z M245.72,63.77
                  c4.07-9.82,13.49-16.7,24.47-16.7c10.97,0,20.4,6.88,24.46,16.7H245.72z"/>
                <g>
                  <g>
                    <path fill="#005CA8" d="M352.59,72.98c-1.4,0-2.54-0.44-3.4-1.32c-0.87-0.88-1.3-2.04-1.3-3.48c0-0.89,0.18-1.7,0.53-2.43
                      c0.35-0.73,0.87-1.3,1.55-1.69c0.68-0.39,1.43-0.59,2.26-0.59c0.49,0,1.03,0.06,1.63,0.18c0.6,0.12,1.11,0.28,1.54,0.49l0.23-2.39
                      c-1.11-0.39-2.29-0.59-3.54-0.59c-2.18,0-3.93,0.66-5.25,1.97c-1.32,1.31-1.98,3.03-1.98,5.17c0,1.56,0.35,2.88,1.04,3.97
                      c0.69,1.09,1.67,1.89,2.94,2.42c1.05,0.43,2.23,0.64,3.51,0.64c0.57,0,1.18-0.05,1.82-0.15c0.64-0.1,1.14-0.2,1.5-0.31l-0.12-2.48
                      C354.59,72.79,353.61,72.98,352.59,72.98z M362.2,64.58c-1.59,0-2.88,0.51-3.88,1.52c-1,1.02-1.5,2.34-1.5,3.96
                      c0,1.6,0.5,2.9,1.5,3.91c1,1.01,2.29,1.51,3.87,1.51c0.92,0,1.73-0.16,2.42-0.49c0.69-0.33,1.25-0.74,1.67-1.23
                      c0.43-0.49,0.74-1.05,0.95-1.7c0.21-0.64,0.31-1.27,0.31-1.89c0-1.69-0.5-3.05-1.49-4.07S363.78,64.58,362.2,64.58z M364.08,72.49
                      c-0.46,0.63-1.09,0.95-1.92,0.95c-0.71,0-1.3-0.29-1.79-0.87c-0.49-0.58-0.73-1.43-0.73-2.56c0-0.56,0.09-1.1,0.27-1.6
                      c0.13-0.35,0.31-0.67,0.53-0.95c0.22-0.28,0.48-0.49,0.77-0.64c0.29-0.15,0.63-0.22,1-0.22c0.83,0,1.46,0.36,1.9,1.07
                      c0.43,0.72,0.65,1.52,0.65,2.41C364.76,71.05,364.53,71.86,364.08,72.49z M376.26,67.76c0.19,0.39,0.29,1.15,0.29,2.27v5.17h2.67
                      v-4.87c-0.01-1.26-0.02-2.03-0.05-2.33c-0.06-0.62-0.17-1.1-0.31-1.44c-0.14-0.34-0.36-0.65-0.65-0.93
                      c-0.29-0.28-0.66-0.51-1.1-0.67c-0.45-0.16-0.95-0.24-1.51-0.24c-1.49,0-2.6,0.58-3.33,1.74l-0.07-1.57h-2.55
                      c0.06,0.65,0.09,1.32,0.09,2.03v8.28h2.69v-4.89c0-0.88,0.09-1.55,0.26-2.01c0.18-0.46,0.46-0.81,0.84-1.05
                      c0.38-0.25,0.79-0.37,1.23-0.37C375.46,66.88,375.96,67.17,376.26,67.76z M384.41,60.59c-0.52,0.34-0.89,0.82-1.11,1.44
                      c-0.22,0.62-0.34,1.59-0.36,2.9h-1.99v2.01h1.99v8.25h2.69v-8.25h2.34v-2.01h-2.34c0.03-1.1,0.13-1.82,0.29-2.16
                      c0.16-0.34,0.5-0.51,1.03-0.51c0.36,0,0.7,0.08,1.02,0.24l0.21-2.2c-0.49-0.14-1.04-0.21-1.64-0.21
                      C385.63,60.08,384.93,60.25,384.41,60.59z M397.66,72.42c-0.6,0.34-1.17,0.59-1.7,0.74c-0.54,0.15-1.08,0.23-1.63,0.23
                      c-0.6,0-1.12-0.1-1.53-0.3c-0.42-0.2-0.76-0.51-1.02-0.92c-0.26-0.41-0.41-0.84-0.42-1.3h6.98c0.02-0.24,0.03-0.42,0.03-0.55
                      c0-1.09-0.15-2.08-0.44-2.94c-0.29-0.87-0.79-1.55-1.52-2.06c-0.72-0.51-1.59-0.76-2.61-0.76c-0.95,0-1.82,0.21-2.61,0.64
                      c-0.79,0.43-1.39,1.06-1.8,1.9c-0.41,0.84-0.62,1.81-0.62,2.9c0,1.11,0.21,2.09,0.65,2.93c0.43,0.85,1.05,1.47,1.86,1.88
                      c0.81,0.41,1.76,0.61,2.86,0.61c0.74,0,1.46-0.09,2.16-0.27c0.7-0.18,1.17-0.36,1.4-0.54L397.66,72.42z M392.17,67.02
                      c0.35-0.37,0.82-0.56,1.44-0.56c0.66,0,1.19,0.21,1.58,0.63c0.4,0.42,0.62,1.06,0.65,1.92h-4.52
                      C391.41,68.19,391.69,67.53,392.17,67.02z M400.83,73.47c0.25,0.39,0.51,0.71,0.79,0.95c0.28,0.25,0.65,0.46,1.09,0.64
                      c0.45,0.18,0.95,0.27,1.52,0.27c0.69,0,1.31-0.15,1.88-0.44c0.57-0.29,1.02-0.69,1.37-1.2v1.51h2.54V60.18h-2.64v6.19
                      c-0.45-0.58-0.92-1-1.43-1.27c-0.51-0.27-1.11-0.4-1.82-0.4c-1.28,0-2.3,0.47-3.04,1.4c-0.74,0.94-1.11,2.21-1.11,3.82
                      c0,0.72,0.08,1.4,0.23,2.03S400.59,73.09,400.83,73.47z M403.41,67.68c0.43-0.52,0.95-0.78,1.57-0.78c0.75,0,1.33,0.3,1.75,0.9
                      c0.42,0.6,0.63,1.37,0.63,2.3c0,1.05-0.23,1.84-0.68,2.37c-0.46,0.53-1,0.8-1.63,0.8c-0.6,0-1.13-0.26-1.59-0.78
                      c-0.46-0.52-0.69-1.33-0.69-2.44C402.76,68.99,402.98,68.19,403.41,67.68z M417.54,75.43c0.74,0,1.46-0.09,2.16-0.27
                      c0.7-0.18,1.17-0.36,1.4-0.54l-0.03-2.2c-0.6,0.34-1.17,0.59-1.7,0.74c-0.53,0.15-1.08,0.23-1.62,0.23c-0.61,0-1.12-0.1-1.54-0.3
                      c-0.42-0.2-0.76-0.51-1.02-0.92c-0.26-0.41-0.41-0.84-0.42-1.3h6.98c0.02-0.24,0.03-0.42,0.03-0.55c0-1.09-0.15-2.08-0.44-2.94
                      c-0.29-0.87-0.8-1.55-1.52-2.06c-0.72-0.51-1.59-0.76-2.61-0.76c-0.95,0-1.82,0.21-2.61,0.64c-0.79,0.43-1.39,1.06-1.8,1.9
                      c-0.41,0.84-0.62,1.81-0.62,2.9c0,1.11,0.21,2.09,0.64,2.93c0.43,0.85,1.05,1.47,1.86,1.88
                      C415.49,75.23,416.44,75.43,417.54,75.43z M415.58,67.02c0.34-0.37,0.82-0.56,1.44-0.56c0.66,0,1.19,0.21,1.58,0.63
                      c0.4,0.42,0.62,1.06,0.65,1.92h-4.52C414.81,68.19,415.09,67.53,415.58,67.02z M426.62,75.2v-4.24c0-0.68,0.04-1.22,0.13-1.62
                      c0.08-0.4,0.23-0.76,0.44-1.07c0.21-0.32,0.48-0.57,0.81-0.76c0.33-0.19,0.74-0.28,1.22-0.28c0.34,0,0.62,0.06,0.82,0.17v-2.52
                      c-0.23-0.04-0.48-0.07-0.73-0.07c-0.7,0-1.32,0.24-1.87,0.73c-0.55,0.49-0.91,1.15-1.08,1.98l-0.05-2.62h-2.45l0.02,0.28
                      l0.07,2.84v7.19H426.62z M439.77,74.55l-0.04-1.58l-0.03-1.51v-1.53c0-1.08-0.05-1.89-0.14-2.45c-0.09-0.56-0.27-1.01-0.53-1.36
                      c-0.38-0.49-0.87-0.85-1.47-1.09c-0.6-0.24-1.34-0.36-2.21-0.36c-0.68,0-1.37,0.07-2.06,0.22c-0.7,0.15-1.22,0.31-1.56,0.49
                      l0.07,2.32c0.4-0.33,0.9-0.6,1.48-0.82c0.58-0.22,1.15-0.33,1.72-0.33c0.78,0,1.36,0.18,1.74,0.53c0.38,0.36,0.57,0.86,0.57,1.5
                      c0,0.07,0,0.16-0.01,0.28c-0.52-0.04-0.99-0.07-1.4-0.07c-1.64,0-2.87,0.22-3.69,0.67c-1.06,0.59-1.59,1.47-1.59,2.64
                      c0,0.65,0.15,1.22,0.44,1.72c0.3,0.5,0.72,0.88,1.27,1.15c0.55,0.27,1.14,0.4,1.79,0.4c0.74,0,1.42-0.16,2.02-0.49
                      c0.6-0.33,1.02-0.73,1.25-1.22l0.07,1.53h2.36L439.77,74.55z M437.04,72.17c-0.18,0.41-0.48,0.75-0.9,1
                      c-0.41,0.26-0.84,0.39-1.28,0.39c-0.5,0-0.88-0.13-1.16-0.38c-0.28-0.25-0.42-0.58-0.42-0.97c0-0.37,0.12-0.69,0.37-0.97
                      c0.25-0.28,0.64-0.48,1.19-0.6c0.54-0.12,1.14-0.18,1.79-0.18c0.12,0,0.34,0.01,0.68,0.04C437.32,71.2,437.22,71.76,437.04,72.17z
                       M444.86,74.89c0.65,0.24,1.38,0.36,2.19,0.36c0.86,0,1.66-0.12,2.39-0.37l-0.12-2.25c-0.26,0.13-0.57,0.24-0.93,0.33
                      c-0.36,0.09-0.7,0.14-1.01,0.14c-0.55,0-1.06-0.13-1.5-0.39c-0.45-0.26-0.79-0.63-1.03-1.11s-0.36-1.02-0.36-1.6
                      c0-0.9,0.28-1.64,0.83-2.21c0.55-0.57,1.25-0.86,2.07-0.86c0.64,0,1.18,0.12,1.62,0.35l0.23-2.15c-0.3-0.09-0.67-0.17-1.11-0.23
                      c-0.44-0.06-0.83-0.09-1.18-0.09c-0.96,0-1.86,0.21-2.69,0.64c-0.84,0.43-1.47,1.04-1.9,1.84c-0.43,0.8-0.64,1.71-0.64,2.76
                      c0,0.92,0.17,1.75,0.51,2.48c0.23,0.5,0.57,0.96,1,1.38S444.21,74.65,444.86,74.89z M451.38,63.01h2.69v-2.52h-2.69V63.01z
                       M451.38,75.2h2.69V64.89h-2.69V75.2z M466.99,70.17c0-1.69-0.5-3.05-1.49-4.07c-0.99-1.02-2.28-1.52-3.86-1.52
                      c-1.58,0-2.88,0.51-3.88,1.52c-1,1.02-1.51,2.34-1.51,3.96c0,1.6,0.5,2.9,1.51,3.91c1,1.01,2.29,1.51,3.87,1.51
                      c0.93,0,1.73-0.16,2.42-0.49c0.69-0.33,1.25-0.74,1.67-1.23c0.43-0.49,0.74-1.05,0.95-1.7C466.88,71.42,466.99,70.79,466.99,70.17
                      z M463.52,72.49c-0.46,0.63-1.09,0.95-1.92,0.95c-0.7,0-1.3-0.29-1.79-0.87c-0.49-0.58-0.73-1.43-0.73-2.56
                      c0-0.56,0.09-1.1,0.27-1.6c0.13-0.35,0.3-0.67,0.53-0.95c0.22-0.28,0.48-0.49,0.77-0.64c0.29-0.15,0.63-0.22,1-0.22
                      c0.83,0,1.46,0.36,1.9,1.07c0.44,0.72,0.65,1.52,0.65,2.41C464.2,71.05,463.97,71.86,463.52,72.49z M464.52,60.55h-2.73
                      l-1.67,2.89h1.57L464.52,60.55z M478.28,66.57c-0.14-0.34-0.36-0.65-0.65-0.93s-0.65-0.51-1.1-0.67
                      c-0.45-0.16-0.95-0.24-1.51-0.24c-1.49,0-2.6,0.58-3.33,1.74l-0.07-1.57h-2.55c0.06,0.65,0.09,1.32,0.09,2.03v8.28h2.69v-4.89
                      c0-0.88,0.09-1.55,0.26-2.01c0.18-0.46,0.46-0.81,0.84-1.05c0.38-0.25,0.79-0.37,1.23-0.37c0.7,0,1.2,0.29,1.5,0.88
                      c0.2,0.39,0.29,1.15,0.29,2.27v5.17h2.67v-4.87c-0.01-1.26-0.02-2.03-0.05-2.33C478.53,67.38,478.42,66.91,478.28,66.57z
                       M489.31,72.02h5.74l1.16,3.18h3.11l-5.5-13.9h-3.16l-5.47,13.9h2.92L489.31,72.02z M492.18,64.07l2.02,5.7h-4.04L492.18,64.07z
                       M500.88,68.01v7.19h2.69v-4.24c0-0.68,0.04-1.22,0.13-1.62c0.08-0.4,0.23-0.76,0.44-1.07c0.21-0.32,0.48-0.57,0.81-0.76
                      c0.33-0.19,0.73-0.28,1.22-0.28c0.34,0,0.62,0.06,0.82,0.17v-2.52c-0.23-0.04-0.48-0.07-0.74-0.07c-0.7,0-1.32,0.24-1.87,0.73
                      c-0.55,0.49-0.91,1.15-1.08,1.98l-0.05-2.62h-2.46l0.02,0.28L500.88,68.01z M510.17,74.62c0.65,0.4,1.35,0.6,2.08,0.6
                      c0.67,0,1.3-0.17,1.92-0.51c0.61-0.34,1.12-0.87,1.51-1.57c-0.01,1.21-0.12,2.08-0.32,2.6c-0.2,0.53-0.55,0.95-1.05,1.24
                      c-0.5,0.3-1.07,0.44-1.7,0.44c-0.5,0-1.05-0.08-1.65-0.24c-0.59-0.16-1.12-0.39-1.56-0.66l-0.23,2.35
                      c1.14,0.47,2.35,0.71,3.62,0.71c0.81,0,1.56-0.1,2.25-0.31c0.44-0.14,0.86-0.35,1.25-0.62c0.39-0.27,0.72-0.59,0.99-0.95
                      c0.27-0.37,0.48-0.84,0.64-1.41c0.16-0.58,0.25-1.35,0.25-2.33v-9.06h-2.57v1.62c-0.16-0.33-0.34-0.59-0.56-0.8
                      c-0.31-0.29-0.7-0.54-1.17-0.72c-0.47-0.19-0.98-0.28-1.52-0.28c-1.19,0-2.2,0.45-3.02,1.36c-0.82,0.91-1.23,2.19-1.23,3.84
                      c0,1.13,0.18,2.1,0.55,2.91C509,73.62,509.51,74.23,510.17,74.62z M511.15,68.25c0.19-0.45,0.47-0.79,0.84-1.03
                      c0.37-0.24,0.76-0.36,1.17-0.36c0.64,0,1.19,0.27,1.66,0.82c0.47,0.55,0.7,1.31,0.7,2.29c0,0.94-0.23,1.67-0.7,2.2
                      c-0.47,0.53-1.03,0.8-1.68,0.8c-0.65,0-1.19-0.27-1.62-0.8s-0.66-1.36-0.66-2.48C510.86,69.18,510.96,68.7,511.15,68.25z
                       M527.85,75.16c0.7-0.18,1.17-0.36,1.4-0.54l-0.03-2.2c-0.6,0.34-1.17,0.59-1.7,0.74c-0.54,0.15-1.08,0.23-1.63,0.23
                      c-0.6,0-1.12-0.1-1.53-0.3c-0.42-0.2-0.76-0.51-1.02-0.92c-0.26-0.41-0.41-0.84-0.42-1.3h6.98c0.02-0.24,0.03-0.42,0.03-0.55
                      c0-1.09-0.15-2.08-0.43-2.94c-0.29-0.87-0.8-1.55-1.52-2.06c-0.72-0.51-1.59-0.76-2.61-0.76c-0.95,0-1.82,0.21-2.61,0.64
                      c-0.79,0.43-1.39,1.06-1.8,1.9c-0.42,0.84-0.62,1.81-0.62,2.9c0,1.11,0.21,2.09,0.65,2.93s1.05,1.47,1.86,1.88
                      s1.76,0.61,2.86,0.61C526.43,75.43,527.15,75.34,527.85,75.16z M523.74,67.02c0.35-0.37,0.82-0.56,1.44-0.56
                      c0.66,0,1.19,0.21,1.58,0.63c0.4,0.42,0.62,1.06,0.66,1.92h-4.52C522.97,68.19,523.25,67.53,523.74,67.02z M534.78,75.2v-4.89
                      c0-0.88,0.09-1.55,0.26-2.01c0.18-0.46,0.46-0.81,0.84-1.05c0.38-0.25,0.8-0.37,1.23-0.37c0.7,0,1.2,0.29,1.5,0.88
                      c0.2,0.39,0.29,1.15,0.29,2.27v5.17h2.67v-4.87c-0.01-1.26-0.02-2.03-0.05-2.33c-0.06-0.62-0.17-1.1-0.31-1.44
                      c-0.14-0.34-0.36-0.65-0.65-0.93c-0.29-0.28-0.65-0.51-1.1-0.67c-0.45-0.16-0.95-0.24-1.51-0.24c-1.49,0-2.6,0.58-3.33,1.74
                      l-0.07-1.57H532c0.06,0.65,0.09,1.32,0.09,2.03v8.28H534.78z M545.16,71.26c0,0.7,0.04,1.23,0.12,1.59
                      c0.11,0.49,0.24,0.86,0.39,1.12c0.16,0.26,0.37,0.49,0.63,0.69c0.26,0.21,0.58,0.37,0.94,0.48c0.37,0.12,0.8,0.17,1.3,0.17
                      c0.68,0,1.29-0.08,1.82-0.25l-0.07-2.13c-0.33,0.1-0.64,0.16-0.96,0.16c-0.62,0-1.06-0.22-1.33-0.64
                      c-0.16-0.26-0.24-0.84-0.24-1.74v-3.78h2.41v-1.99h-2.41v-2.96l-2.57,0.85v2.11h-1.99v1.99h1.96V71.26z M555.21,64.89h-2.69V75.2
                      h2.69V64.89z M555.21,60.48h-2.69v2.52h2.69V60.48z M567.18,66.57c-0.14-0.34-0.36-0.65-0.65-0.93s-0.65-0.51-1.1-0.67
                      c-0.45-0.16-0.95-0.24-1.51-0.24c-1.49,0-2.6,0.58-3.33,1.74l-0.07-1.57h-2.55c0.06,0.65,0.09,1.32,0.09,2.03v8.28h2.69v-4.89
                      c0-0.88,0.09-1.55,0.26-2.01c0.18-0.46,0.46-0.81,0.84-1.05c0.38-0.25,0.79-0.37,1.23-0.37c0.7,0,1.2,0.29,1.5,0.88
                      c0.2,0.39,0.29,1.15,0.29,2.27v5.17h2.67v-4.87c-0.01-1.26-0.02-2.03-0.05-2.33C567.43,67.38,567.32,66.91,567.18,66.57z
                       M578.74,74.55l-0.04-1.58l-0.03-1.51v-1.53c0-1.08-0.04-1.89-0.14-2.45c-0.09-0.56-0.27-1.01-0.53-1.36
                      c-0.38-0.49-0.87-0.85-1.47-1.09c-0.6-0.24-1.34-0.36-2.21-0.36c-0.68,0-1.37,0.07-2.06,0.22c-0.7,0.15-1.22,0.31-1.56,0.49
                      l0.07,2.32c0.41-0.33,0.9-0.6,1.48-0.82c0.58-0.22,1.15-0.33,1.72-0.33c0.78,0,1.36,0.18,1.74,0.53c0.38,0.36,0.57,0.86,0.57,1.5
                      c0,0.07,0,0.16-0.01,0.28c-0.52-0.04-0.99-0.07-1.4-0.07c-1.64,0-2.87,0.22-3.68,0.67c-1.06,0.59-1.59,1.47-1.59,2.64
                      c0,0.65,0.15,1.22,0.45,1.72c0.3,0.5,0.72,0.88,1.27,1.15c0.55,0.27,1.14,0.4,1.79,0.4c0.74,0,1.42-0.16,2.02-0.49
                      c0.6-0.33,1.02-0.73,1.25-1.22l0.07,1.53h2.37L578.74,74.55z M576.01,72.17c-0.18,0.41-0.48,0.75-0.89,1
                      c-0.41,0.26-0.84,0.39-1.28,0.39c-0.5,0-0.88-0.13-1.17-0.38c-0.28-0.25-0.42-0.58-0.42-0.97c0-0.37,0.12-0.69,0.37-0.97
                      c0.25-0.28,0.64-0.48,1.19-0.6c0.54-0.12,1.14-0.18,1.79-0.18c0.12,0,0.34,0.01,0.68,0.04C576.28,71.2,576.19,71.76,576.01,72.17z
                       M351.97,90.1c-0.44-0.58-0.92-1-1.43-1.27c-0.51-0.27-1.12-0.4-1.82-0.4c-1.28,0-2.3,0.47-3.04,1.4s-1.11,2.21-1.11,3.82
                      c0,0.72,0.08,1.4,0.24,2.03s0.36,1.14,0.6,1.53c0.25,0.39,0.51,0.71,0.79,0.95c0.28,0.25,0.65,0.46,1.09,0.64
                      c0.45,0.18,0.95,0.27,1.52,0.27c0.68,0,1.31-0.15,1.88-0.44c0.57-0.29,1.02-0.69,1.37-1.2v1.51h2.54V83.91h-2.64V90.1z
                       M351.26,96.21c-0.46,0.53-1,0.8-1.63,0.8c-0.6,0-1.13-0.26-1.59-0.78c-0.46-0.52-0.69-1.33-0.69-2.44c0-1.07,0.21-1.86,0.64-2.38
                      c0.43-0.52,0.96-0.78,1.58-0.78c0.75,0,1.33,0.3,1.75,0.9c0.42,0.6,0.63,1.37,0.63,2.3C351.94,94.89,351.71,95.68,351.26,96.21z
                       M364.4,89.05c-0.72-0.51-1.59-0.76-2.61-0.76c-0.95,0-1.82,0.21-2.61,0.64s-1.39,1.06-1.8,1.9c-0.42,0.84-0.62,1.81-0.62,2.91
                      c0,1.11,0.22,2.08,0.65,2.93c0.43,0.85,1.05,1.48,1.86,1.88c0.81,0.41,1.77,0.61,2.86,0.61c0.74,0,1.46-0.09,2.16-0.27
                      c0.7-0.18,1.17-0.36,1.4-0.54l-0.03-2.2c-0.6,0.34-1.17,0.58-1.7,0.74c-0.54,0.15-1.08,0.23-1.62,0.23c-0.61,0-1.12-0.1-1.54-0.3
                      c-0.42-0.2-0.76-0.51-1.02-0.92c-0.27-0.41-0.41-0.84-0.43-1.3h6.98c0.02-0.24,0.03-0.42,0.03-0.55c0-1.09-0.14-2.08-0.43-2.94
                      C365.63,90.24,365.12,89.56,364.4,89.05z M359.32,92.74c0.07-0.82,0.35-1.48,0.84-1.99c0.35-0.37,0.82-0.56,1.44-0.56
                      c0.66,0,1.19,0.21,1.58,0.63c0.4,0.42,0.62,1.06,0.66,1.92H359.32z M374.11,98.93h2.69V83.91h-2.69V98.93z M388.02,96.7
                      l-0.03-1.51v-1.53c0-1.07-0.05-1.89-0.14-2.45c-0.09-0.56-0.27-1.01-0.53-1.35c-0.38-0.49-0.87-0.85-1.47-1.1
                      c-0.6-0.24-1.34-0.36-2.2-0.36c-0.68,0-1.37,0.07-2.06,0.23c-0.7,0.15-1.22,0.31-1.57,0.49l0.07,2.32c0.4-0.33,0.9-0.6,1.48-0.82
                      c0.58-0.22,1.15-0.33,1.72-0.33c0.78,0,1.36,0.18,1.74,0.53c0.38,0.36,0.57,0.86,0.57,1.5c0,0.07,0,0.16-0.01,0.28
                      c-0.52-0.04-0.99-0.07-1.4-0.07c-1.64,0-2.87,0.22-3.69,0.67c-1.06,0.59-1.59,1.47-1.59,2.64c0,0.65,0.15,1.22,0.44,1.72
                      c0.3,0.5,0.72,0.88,1.27,1.15s1.14,0.4,1.79,0.4c0.74,0,1.42-0.17,2.02-0.49c0.6-0.33,1.02-0.73,1.25-1.22l0.07,1.53h2.37
                      l-0.05-0.65L388.02,96.7z M385.33,95.9c-0.18,0.41-0.48,0.75-0.89,1c-0.42,0.26-0.84,0.39-1.28,0.39c-0.5,0-0.88-0.13-1.16-0.38
                      c-0.28-0.25-0.42-0.58-0.42-0.97c0-0.37,0.12-0.69,0.37-0.97c0.25-0.28,0.64-0.48,1.19-0.6c0.54-0.12,1.14-0.18,1.79-0.18
                      c0.12,0,0.34,0.01,0.67,0.04C385.6,94.93,385.51,95.49,385.33,95.9z M404.31,95.6l-3.33-10.57h-4.5v13.9h2.59V87.34l3.85,11.59
                      h2.62l3.94-11.59v11.59h2.66v-13.9h-4.4L404.31,95.6z M421.87,89.05c-0.72-0.51-1.59-0.76-2.61-0.76c-0.95,0-1.82,0.21-2.61,0.64
                      s-1.39,1.06-1.8,1.9c-0.41,0.84-0.62,1.81-0.62,2.91c0,1.11,0.22,2.08,0.65,2.93c0.43,0.85,1.05,1.48,1.86,1.88
                      c0.81,0.41,1.77,0.61,2.86,0.61c0.74,0,1.46-0.09,2.16-0.27c0.7-0.18,1.17-0.36,1.4-0.54l-0.03-2.2c-0.6,0.34-1.17,0.58-1.7,0.74
                      c-0.54,0.15-1.08,0.23-1.62,0.23c-0.61,0-1.12-0.1-1.53-0.3c-0.42-0.2-0.76-0.51-1.02-0.92c-0.26-0.41-0.41-0.84-0.42-1.3h6.98
                      c0.02-0.24,0.03-0.42,0.03-0.55c0-1.09-0.15-2.08-0.44-2.94C423.1,90.24,422.59,89.56,421.87,89.05z M416.79,92.74
                      c0.07-0.82,0.35-1.48,0.84-1.99c0.34-0.37,0.82-0.56,1.44-0.56c0.66,0,1.19,0.21,1.58,0.63c0.4,0.42,0.62,1.06,0.66,1.92H416.79z
                       M432.84,90.1c-0.44-0.58-0.92-1-1.43-1.27c-0.51-0.27-1.11-0.4-1.82-0.4c-1.28,0-2.3,0.47-3.04,1.4s-1.11,2.21-1.11,3.82
                      c0,0.72,0.08,1.4,0.24,2.03c0.16,0.63,0.36,1.14,0.6,1.53c0.24,0.39,0.51,0.71,0.79,0.95c0.29,0.25,0.65,0.46,1.09,0.64
                      c0.45,0.18,0.95,0.27,1.52,0.27c0.69,0,1.31-0.15,1.88-0.44c0.57-0.29,1.02-0.69,1.37-1.2v1.51h2.54V83.91h-2.64V90.1z
                       M432.13,96.21c-0.46,0.53-1,0.8-1.63,0.8c-0.6,0-1.13-0.26-1.59-0.78c-0.46-0.52-0.69-1.33-0.69-2.44c0-1.07,0.22-1.86,0.65-2.38
                      c0.43-0.52,0.96-0.78,1.57-0.78c0.75,0,1.33,0.3,1.75,0.9c0.42,0.6,0.63,1.37,0.63,2.3C432.82,94.89,432.59,95.68,432.13,96.21z
                       M438.25,86.74h2.69v-2.52h-2.69V86.74z M438.25,98.93h2.69V88.62h-2.69V98.93z M452.18,96.7l-0.03-1.51v-1.53
                      c0-1.07-0.05-1.89-0.14-2.45c-0.09-0.56-0.27-1.01-0.53-1.35c-0.38-0.49-0.87-0.85-1.47-1.1c-0.6-0.24-1.34-0.36-2.21-0.36
                      c-0.68,0-1.36,0.07-2.06,0.23c-0.7,0.15-1.22,0.31-1.56,0.49l0.07,2.32c0.4-0.33,0.9-0.6,1.48-0.82c0.58-0.22,1.15-0.33,1.72-0.33
                      c0.78,0,1.36,0.18,1.74,0.53s0.57,0.86,0.57,1.5c0,0.07,0,0.16-0.01,0.28c-0.52-0.04-0.99-0.07-1.4-0.07
                      c-1.64,0-2.87,0.22-3.69,0.67c-1.06,0.59-1.59,1.47-1.59,2.64c0,0.65,0.15,1.22,0.44,1.72c0.3,0.5,0.72,0.88,1.27,1.15
                      c0.55,0.27,1.14,0.4,1.79,0.4c0.74,0,1.42-0.17,2.02-0.49c0.6-0.33,1.02-0.73,1.25-1.22l0.07,1.53h2.37l-0.05-0.65L452.18,96.7z
                       M449.49,95.9c-0.18,0.41-0.48,0.75-0.89,1c-0.41,0.26-0.84,0.39-1.28,0.39c-0.5,0-0.88-0.13-1.16-0.38
                      c-0.28-0.25-0.42-0.58-0.42-0.97c0-0.37,0.12-0.69,0.37-0.97c0.25-0.28,0.64-0.48,1.19-0.6c0.54-0.12,1.14-0.18,1.8-0.18
                      c0.12,0,0.34,0.01,0.67,0.04C449.77,94.93,449.68,95.49,449.49,95.9z M464.03,90.3c-0.14-0.34-0.36-0.65-0.64-0.93
                      c-0.29-0.28-0.66-0.51-1.1-0.67c-0.45-0.16-0.95-0.24-1.51-0.24c-1.49,0-2.6,0.58-3.33,1.74l-0.07-1.58h-2.55
                      c0.06,0.65,0.09,1.32,0.09,2.03v8.28h2.69v-4.89c0-0.88,0.09-1.55,0.26-2c0.18-0.46,0.46-0.81,0.84-1.05
                      c0.38-0.25,0.79-0.37,1.23-0.37c0.7,0,1.2,0.29,1.5,0.88c0.2,0.39,0.29,1.15,0.29,2.27v5.17h2.67v-4.87
                      c-0.01-1.26-0.02-2.03-0.05-2.33C464.28,91.12,464.18,90.64,464.03,90.3z M475.55,96.7l-0.03-1.51v-1.53
                      c0-1.07-0.04-1.89-0.14-2.45c-0.09-0.56-0.27-1.01-0.53-1.35c-0.38-0.49-0.87-0.85-1.47-1.1c-0.6-0.24-1.34-0.36-2.21-0.36
                      c-0.68,0-1.37,0.07-2.06,0.23c-0.7,0.15-1.22,0.31-1.56,0.49l0.07,2.32c0.4-0.33,0.9-0.6,1.48-0.82c0.58-0.22,1.15-0.33,1.72-0.33
                      c0.78,0,1.36,0.18,1.74,0.53c0.38,0.36,0.57,0.86,0.57,1.5c0,0.07,0,0.16-0.01,0.28c-0.52-0.04-0.99-0.07-1.4-0.07
                      c-1.64,0-2.87,0.22-3.69,0.67c-1.06,0.59-1.59,1.47-1.59,2.64c0,0.65,0.15,1.22,0.44,1.72s0.72,0.88,1.27,1.15
                      c0.55,0.27,1.14,0.4,1.79,0.4c0.74,0,1.42-0.17,2.02-0.49c0.6-0.33,1.02-0.73,1.25-1.22l0.07,1.53h2.37l-0.05-0.65L475.55,96.7z
                       M472.86,95.9c-0.18,0.41-0.48,0.75-0.89,1c-0.42,0.26-0.84,0.39-1.28,0.39c-0.49,0-0.88-0.13-1.16-0.38
                      c-0.28-0.25-0.42-0.58-0.42-0.97c0-0.37,0.12-0.69,0.37-0.97c0.25-0.28,0.64-0.48,1.19-0.6s1.14-0.18,1.79-0.18
                      c0.12,0,0.34,0.01,0.67,0.04C473.13,94.93,473.04,95.49,472.86,95.9z M486.9,92.98h4.94v-2.27h-4.94v-3.29h5.4V85.1h-8.22v13.83
                      h8.27v-2.32h-5.45V92.98z M509.5,89.83c-0.24-0.41-0.59-0.75-1.05-1.01c-0.46-0.26-0.99-0.39-1.6-0.39
                      c-0.51,0-1.02,0.09-1.51,0.28c-0.49,0.19-0.9,0.44-1.22,0.75c-0.23,0.21-0.42,0.49-0.58,0.82c-0.25-0.56-0.58-0.99-0.97-1.27
                      c-0.51-0.37-1.15-0.56-1.92-0.56c-0.68,0-1.31,0.15-1.88,0.46c-0.57,0.3-1.02,0.73-1.36,1.28l-0.07-1.58h-2.55
                      c0.03,0.26,0.04,0.54,0.05,0.84l0.04,1.71v7.76h2.69v-5.17c0-1.06,0.2-1.83,0.61-2.33c0.41-0.5,0.88-0.75,1.39-0.75
                      c0.44,0,0.81,0.17,1.1,0.51c0.29,0.34,0.44,0.86,0.44,1.55v6.19h2.69V93.5c0-0.45,0.08-0.91,0.23-1.39
                      c0.16-0.48,0.4-0.84,0.72-1.07c0.33-0.24,0.66-0.36,1.02-0.36c0.31,0,0.59,0.09,0.84,0.26c0.26,0.17,0.44,0.42,0.54,0.74
                      c0.1,0.31,0.16,0.84,0.16,1.58v5.68h2.69v-5.95c0-0.78-0.04-1.38-0.11-1.78C509.82,90.58,509.68,90.13,509.5,89.83z M518.59,88.43
                      c-0.72,0-1.35,0.16-1.91,0.47c-0.56,0.32-1.01,0.75-1.36,1.31l-0.05-1.6h-2.59l0.02,0.28l0.03,0.71l0.04,2.01v11.55h2.67v-5.66
                      c0.3,0.48,0.71,0.85,1.22,1.13c0.51,0.28,1.12,0.42,1.83,0.42c0.91,0,1.7-0.22,2.37-0.67c0.66-0.45,1.16-1.09,1.49-1.92
                      c0.33-0.84,0.49-1.79,0.49-2.86c0-1.78-0.45-3.13-1.36-4.07C520.72,88.8,519.77,88.43,518.59,88.43z M519.35,96.15
                      c-0.46,0.56-1,0.84-1.6,0.84c-0.63,0-1.17-0.27-1.63-0.81c-0.46-0.54-0.69-1.32-0.69-2.34c0-1.04,0.24-1.83,0.72-2.38
                      c0.48-0.55,1.07-0.83,1.75-0.83c0.61,0,1.09,0.22,1.45,0.66c0.46,0.58,0.69,1.38,0.69,2.43
                      C520.04,94.78,519.81,95.59,519.35,96.15z M528.52,89.26c-0.55,0.49-0.91,1.15-1.09,1.98l-0.05-2.62h-2.45l0.02,0.28l0.07,2.85
                      v7.19h2.69v-4.24c0-0.68,0.04-1.23,0.13-1.62c0.08-0.4,0.23-0.76,0.44-1.07c0.21-0.32,0.48-0.57,0.81-0.76
                      c0.33-0.19,0.74-0.28,1.22-0.28c0.35,0,0.62,0.06,0.82,0.17V88.6c-0.23-0.04-0.48-0.07-0.73-0.07
                      C529.69,88.53,529.07,88.77,528.52,89.26z M539.85,89.05c-0.72-0.51-1.59-0.76-2.61-0.76c-0.95,0-1.82,0.21-2.61,0.64
                      c-0.79,0.43-1.39,1.06-1.8,1.9c-0.41,0.84-0.62,1.81-0.62,2.91c0,1.11,0.22,2.08,0.65,2.93c0.43,0.85,1.05,1.48,1.86,1.88
                      c0.81,0.41,1.77,0.61,2.86,0.61c0.74,0,1.45-0.09,2.16-0.27c0.7-0.18,1.17-0.36,1.4-0.54l-0.03-2.2c-0.6,0.34-1.17,0.58-1.7,0.74
                      c-0.54,0.15-1.08,0.23-1.62,0.23c-0.61,0-1.12-0.1-1.54-0.3c-0.42-0.2-0.76-0.51-1.02-0.92c-0.26-0.41-0.41-0.84-0.42-1.3h6.98
                      c0.02-0.24,0.03-0.42,0.03-0.55c0-1.09-0.15-2.08-0.43-2.94C541.08,90.24,540.57,89.56,539.85,89.05z M534.78,92.74
                      c0.07-0.82,0.35-1.48,0.84-1.99c0.34-0.37,0.82-0.56,1.44-0.56c0.66,0,1.19,0.21,1.58,0.63c0.4,0.42,0.62,1.06,0.66,1.92H534.78z
                       M548.73,92.98l-1.88-0.66c-0.03-0.01-0.07-0.01-0.1-0.02c-0.14-0.01-0.29-0.1-0.47-0.25c-0.18-0.16-0.27-0.34-0.27-0.56
                      c0-0.28,0.15-0.54,0.45-0.77c0.3-0.23,0.76-0.35,1.4-0.35c0.66,0,1.39,0.16,2.21,0.47l0.19-2.04c-1-0.27-1.92-0.4-2.76-0.4
                      c-1.31,0-2.37,0.34-3.17,1.03c-0.64,0.55-0.96,1.26-0.96,2.14c0,0.73,0.2,1.34,0.59,1.82c0.39,0.48,1.11,0.89,2.17,1.23l1.16,0.37
                      c0.24,0.08,0.42,0.19,0.53,0.33c0.11,0.14,0.17,0.33,0.17,0.56c0,0.35-0.12,0.62-0.36,0.8c-0.34,0.26-0.83,0.39-1.49,0.39
                      c-0.7,0-1.56-0.22-2.6-0.65l-0.17,2.23c1.07,0.31,2.13,0.46,3.18,0.46c0.83,0,1.5-0.1,2.02-0.3c0.33-0.12,0.65-0.31,0.98-0.58
                      c0.33-0.26,0.6-0.58,0.82-0.97c0.22-0.39,0.32-0.87,0.32-1.45c0-0.7-0.17-1.29-0.52-1.78C549.83,93.54,549.35,93.19,548.73,92.98z
                       M561.24,96.7l-0.03-1.51v-1.53c0-1.07-0.04-1.89-0.14-2.45c-0.09-0.56-0.27-1.01-0.53-1.35c-0.38-0.49-0.87-0.85-1.47-1.1
                      c-0.6-0.24-1.34-0.36-2.2-0.36c-0.68,0-1.37,0.07-2.06,0.23c-0.7,0.15-1.22,0.31-1.56,0.49l0.07,2.32c0.4-0.33,0.9-0.6,1.48-0.82
                      c0.58-0.22,1.15-0.33,1.72-0.33c0.78,0,1.36,0.18,1.74,0.53s0.57,0.86,0.57,1.5c0,0.07,0,0.16-0.01,0.28
                      c-0.52-0.04-0.99-0.07-1.4-0.07c-1.64,0-2.87,0.22-3.68,0.67c-1.06,0.59-1.59,1.47-1.59,2.64c0,0.65,0.15,1.22,0.44,1.72
                      c0.3,0.5,0.72,0.88,1.27,1.15c0.55,0.27,1.14,0.4,1.79,0.4c0.74,0,1.42-0.17,2.02-0.49c0.6-0.33,1.02-0.73,1.25-1.22l0.07,1.53
                      h2.37l-0.05-0.65L561.24,96.7z M558.55,95.9c-0.18,0.41-0.48,0.75-0.89,1c-0.42,0.26-0.84,0.39-1.28,0.39
                      c-0.5,0-0.88-0.13-1.16-0.38c-0.28-0.25-0.42-0.58-0.42-0.97c0-0.37,0.12-0.69,0.37-0.97c0.25-0.28,0.64-0.48,1.19-0.6
                      c0.54-0.12,1.14-0.18,1.8-0.18c0.12,0,0.34,0.01,0.67,0.04C558.83,94.93,558.74,95.49,558.55,95.9z"/>
                  </g>
                </g>
              </svg>